#!OML:ASF H:\Terrain\Patient Classification 1\Walking\liu\liu.ASF
:FULLY-SPECIFIED
:DEGREES
191
root 9.31953 16.8271 11.0611 8.56314 2.89473 5.02122
lowerback -3.53617 -2.70384 -7.58339
upperback -0.257728 -3.33119 1.41375
thorax 2.23607 -1.74744 5.53165
lowerneck -20.5762 -3.34538 -12.5781
upperneck 20.9638 -3.84264 12.6593
head 10.6322 -1.27967 6.15555
rclavicle -2.08724e-014 2.62396e-014
rhumerus -51.6755 12.6367 -85.687
rradius 35.7671
rwrist -19.2296
rhand -26.3763 -27.2089
rfingers 7.12502
rthumb 0.18229 -57.1886
lclavicle -2.08724e-014 2.62396e-014
lhumerus -12.5438 -33.8759 88.2918
lradius 40.3396
lwrist 15.1914
lhand -22.7622 -27.2551
lfingers 7.12502
lthumb 3.67275 2.69298
rfemur -43.3285 2.68966 13.9038
rtibia 32.1016
rfoot -22.6014 -8.46934
rtoes -23.1373
lfemur 7.27775 -1.23155 -29.5789
ltibia 4.06668
lfoot -16.7283 2.56512
ltoes 1.60566
192
root 9.32169 16.7958 11.2965 8.4389 2.68805 4.99784
lowerback -3.42954 -2.63862 -7.60015
upperback -0.176631 -3.2502 1.4366
thorax 2.25052 -1.71051 5.57359
lowerneck -21.1074 -3.39623 -12.6273
upperneck 21.4116 -3.89073 12.7342
head 10.9074 -1.28505 6.21319
rclavicle -1.08338e-014 -4.77083e-015
rhumerus -52.2582 12.1138 -85.0169
rradius 35.4329
rwrist -19.3688
rhand -26.9279 -25.0387
rfingers 7.12502
rthumb -0.350455 -55.0182
lclavicle -1.08338e-014 -4.77083e-015
lhumerus -10.9186 -34.2322 87.4395
lradius 40.7137
lwrist 14.805
lhand -23.5134 -28.1144
lfingers 7.12502
lthumb 2.94731 1.84497
rfemur -44.0899 4.80124 12.6266
rtibia 31.0054
rfoot -22.867 -8.78434
rtoes -21.5322
lfemur 10.387 -0.711464 -29.5218
ltibia -1.59028e-014
lfoot -15.1906 2.55147
ltoes 0.679078
193
root 9.32546 16.7664 11.5361 8.57089 2.55509 5.39805
lowerback -3.67177 -2.64608 -8.01089
upperback -0.156649 -3.22039 1.34361
thorax 2.42065 -1.70654 5.69896
lowerneck -21.2903 -3.4582 -12.5828
upperneck 21.5358 -3.95718 12.6404
head 10.9953 -1.3184 6.1667
rclavicle -3.07619e-014 1.35174e-014
rhumerus -53.1491 12.0388 -84.7511
rradius 35.6543
rwrist -19.9525
rhand -27.5458 -25.1206
rfingers 7.12502
rthumb -0.9472 -55.0983
lclavicle -3.07619e-014 1.35174e-014
lhumerus -9.32285 -34.2933 86.7171
lradius 40.7845
lwrist 14.2785
lhand -23.6113 -28.7748
lfingers 7.12502
lthumb 2.85276 1.18589
rfemur -45.1338 6.7453 10.7302
rtibia 30.0472
rfoot -23.0432 -9.19963
rtoes -17.3612
lfemur 11.147 -0.363721 -29.8997
ltibia -1.59028e-014
lfoot -15.6513 2.2416
ltoes 1.01276
194
root 9.33397 16.7295 11.7746 8.70283 2.62927 6.11787
lowerback -3.85807 -2.78572 -8.69346
upperback -0.200655 -3.35862 1.21768
thorax 2.53401 -1.78543 5.9338
lowerneck -20.7269 -3.36485 -12.6092
upperneck 21.0184 -3.80846 12.5139
head 10.673 -1.27957 6.11438
rclavicle -3.72721e-014 -1.43125e-014
rhumerus -53.6166 11.506 -83.9886
rradius 34.9976
rwrist -19.7664
rhand -28.3331 -24.5228
rfingers 7.12502
rthumb -1.7076 -54.4958
lclavicle -3.72721e-014 -1.43125e-014
lhumerus -8.02093 -34.0724 86.2554
lradius 40.7506
lwrist 13.7833
lhand -23.2492 -28.8985
lfingers 7.12502
lthumb 3.20244 1.05722
rfemur -46.0819 7.86309 8.76771
rtibia 29.301
rfoot -23.4171 -9.38934
rtoes -15.0462
lfemur 12.0254 -0.264665 -30.5645
ltibia -9.54166e-015
lfoot -16.1707 1.69539
ltoes 1.59735
195
root 9.31206 16.7092 12.03 8.95563 2.43228 6.20055
lowerback -4.27264 -2.76941 -9.07793
upperback -0.33701 -3.28588 1.28572
thorax 2.63833 -1.75378 6.21417
lowerneck -20.2519 -3.3519 -12.7964
upperneck 20.6901 -3.80003 12.6676
head 10.4698 -1.28449 6.18699
rclavicle -1.74931e-014 -8.74653e-015
rhumerus -54.1701 10.5259 -82.9203
rradius 34.1638
rwrist -18.97
rhand -29.7368 -24.3313
rfingers 7.12502
rthumb -3.06326 -54.289
lclavicle -1.74931e-014 -8.74653e-015
lhumerus -7.18982 -33.7941 86.1761
lradius 40.8299
lwrist 13.0959
lhand -23.0845 -28.5931
lfingers 7.12502
lthumb 3.36154 1.3601
rfemur -47.2018 10.3106 7.01286
rtibia 28.7195
rfoot -24.4857 -11.0343
rtoes -14.8141
lfemur 12.6794 0.143852 -30.4692
ltibia -2.54444e-014
lfoot -16.4196 1.44749
ltoes -0.48904
196
root 9.30258 16.6672 12.2787 9.09013 2.37107 6.35012
lowerback -4.27414 -2.77063 -9.30579
upperback -0.618275 -3.28696 1.25009
thorax 2.35511 -1.73309 6.31274
lowerneck -19.9174 -3.28407 -12.8529
upperneck 20.8093 -3.76944 12.7943
head 10.4481 -1.27123 6.25195
rclavicle 3.50855e-014 -3.97569e-015
rhumerus -55.1894 10.2148 -82.37
rradius 34.017
rwrist -18.7797
rhand -30.7213 -27.2779
rfingers 7.12502
rthumb -4.01404 -57.2199
lclavicle 3.50855e-014 -3.97569e-015
lhumerus -6.73278 -33.3221 86.209
lradius 41.051
lwrist 12.6432
lhand -22.5146 -28.1609
lfingers 7.12502
lthumb 3.91182 1.78293
rfemur -48.1155 11.5998 5.81764
rtibia 28.4672
rfoot -25.4241 -12.03
rtoes -17.0385
lfemur 13.4263 0.437622 -30.4896
ltibia 3.49861e-014
lfoot -16.4331 1.1836
ltoes -1.57157
